<svg version="1.1" xmlns="http://www.w3.org/2000/svg" viewBox="0 0 328 328" preserveAspectRatio="xMinYMin meet" role="img" aria-labelledby="qr-linktree-title"><title id="qr-linktree-title">Scan to open the Louis Lock Linktree</title><rect width="100%" height="100%" fill="#F5F3EF"/><path d="M32,32l8,0 0,8 -8,0 0,-8z M40,32l8,0 0,8 -8,0 0,-8z M48,32l8,0 0,8 -8,0 0,-8z M56,32l8,0 0,8 -8,0 0,-8z M64,32l8,0 0,8 -8,0 0,-8z M72,32l8,0 0,8 -8,0 0,-8z M80,32l8,0 0,8 -8,0 0,-8z M96,32l8,0 0,8 -8,0 0,-8z M104,32l8,0 0,8 -8,0 0,-8z M112,32l8,0 0,8 -8,0 0,-8z M128,32l8,0 0,8 -8,0 0,-8z M136,32l8,0 0,8 -8,0 0,-8z M144,32l8,0 0,8 -8,0 0,-8z M152,32l8,0 0,8 -8,0 0,-8z M160,32l8,0 0,8 -8,0 0,-8z M168,32l8,0 0,8 -8,0 0,-8z M176,32l8,0 0,8 -8,0 0,-8z M216,32l8,0 0,8 -8,0 0,-8z M224,32l8,0 0,8 -8,0 0,-8z M240,32l8,0 0,8 -8,0 0,-8z M248,32l8,0 0,8 -8,0 0,-8z M256,32l8,0 0,8 -8,0 0,-8z M264,32l8,0 0,8 -8,0 0,-8z M272,32l8,0 0,8 -8,0 0,-8z M280,32l8,0 0,8 -8,0 0,-8z M288,32l8,0 0,8 -8,0 0,-8z M32,40l8,0 0,8 -8,0 0,-8z M80,40l8,0 0,8 -8,0 0,-8z M96,40l8,0 0,8 -8,0 0,-8z M104,40l8,0 0,8 -8,0 0,-8z M136,40l8,0 0,8 -8,0 0,-8z M152,40l8,0 0,8 -8,0 0,-8z M208,40l8,0 0,8 -8,0 0,-8z M224,40l8,0 0,8 -8,0 0,-8z M240,40l8,0 0,8 -8,0 0,-8z M288,40l8,0 0,8 -8,0 0,-8z M32,48l8,0 0,8 -8,0 0,-8z M48,48l8,0 0,8 -8,0 0,-8z M56,48l8,0 0,8 -8,0 0,-8z M64,48l8,0 0,8 -8,0 0,-8z M80,48l8,0 0,8 -8,0 0,-8z M96,48l8,0 0,8 -8,0 0,-8z M104,48l8,0 0,8 -8,0 0,-8z M112,48l8,0 0,8 -8,0 0,-8z M136,48l8,0 0,8 -8,0 0,-8z M152,48l8,0 0,8 -8,0 0,-8z M168,48l8,0 0,8 -8,0 0,-8z M176,48l8,0 0,8 -8,0 0,-8z M192,48l8,0 0,8 -8,0 0,-8z M200,48l8,0 0,8 -8,0 0,-8z M216,48l8,0 0,8 -8,0 0,-8z M224,48l8,0 0,8 -8,0 0,-8z M240,48l8,0 0,8 -8,0 0,-8z M256,48l8,0 0,8 -8,0 0,-8z M264,48l8,0 0,8 -8,0 0,-8z M272,48l8,0 0,8 -8,0 0,-8z M288,48l8,0 0,8 -8,0 0,-8z M32,56l8,0 0,8 -8,0 0,-8z M48,56l8,0 0,8 -8,0 0,-8z M56,56l8,0 0,8 -8,0 0,-8z M64,56l8,0 0,8 -8,0 0,-8z M80,56l8,0 0,8 -8,0 0,-8z M128,56l8,0 0,8 -8,0 0,-8z M136,56l8,0 0,8 -8,0 0,-8z M144,56l8,0 0,8 -8,0 0,-8z M152,56l8,0 0,8 -8,0 0,-8z M168,56l8,0 0,8 -8,0 0,-8z M192,56l8,0 0,8 -8,0 0,-8z M208,56l8,0 0,8 -8,0 0,-8z M216,56l8,0 0,8 -8,0 0,-8z M240,56l8,0 0,8 -8,0 0,-8z M256,56l8,0 0,8 -8,0 0,-8z M264,56l8,0 0,8 -8,0 0,-8z M272,56l8,0 0,8 -8,0 0,-8z M288,56l8,0 0,8 -8,0 0,-8z M32,64l8,0 0,8 -8,0 0,-8z M48,64l8,0 0,8 -8,0 0,-8z M56,64l8,0 0,8 -8,0 0,-8z M64,64l8,0 0,8 -8,0 0,-8z M80,64l8,0 0,8 -8,0 0,-8z M104,64l8,0 0,8 -8,0 0,-8z M120,64l8,0 0,8 -8,0 0,-8z M128,64l8,0 0,8 -8,0 0,-8z M160,64l8,0 0,8 -8,0 0,-8z M184,64l8,0 0,8 -8,0 0,-8z M200,64l8,0 0,8 -8,0 0,-8z M224,64l8,0 0,8 -8,0 0,-8z M240,64l8,0 0,8 -8,0 0,-8z M256,64l8,0 0,8 -8,0 0,-8z M264,64l8,0 0,8 -8,0 0,-8z M272,64l8,0 0,8 -8,0 0,-8z M288,64l8,0 0,8 -8,0 0,-8z M32,72l8,0 0,8 -8,0 0,-8z M80,72l8,0 0,8 -8,0 0,-8z M96,72l8,0 0,8 -8,0 0,-8z M112,72l8,0 0,8 -8,0 0,-8z M120,72l8,0 0,8 -8,0 0,-8z M144,72l8,0 0,8 -8,0 0,-8z M160,72l8,0 0,8 -8,0 0,-8z M168,72l8,0 0,8 -8,0 0,-8z M176,72l8,0 0,8 -8,0 0,-8z M184,72l8,0 0,8 -8,0 0,-8z M200,72l8,0 0,8 -8,0 0,-8z M208,72l8,0 0,8 -8,0 0,-8z M240,72l8,0 0,8 -8,0 0,-8z M288,72l8,0 0,8 -8,0 0,-8z M32,80l8,0 0,8 -8,0 0,-8z M40,80l8,0 0,8 -8,0 0,-8z M48,80l8,0 0,8 -8,0 0,-8z M56,80l8,0 0,8 -8,0 0,-8z M64,80l8,0 0,8 -8,0 0,-8z M72,80l8,0 0,8 -8,0 0,-8z M80,80l8,0 0,8 -8,0 0,-8z M96,80l8,0 0,8 -8,0 0,-8z M112,80l8,0 0,8 -8,0 0,-8z M128,80l8,0 0,8 -8,0 0,-8z M144,80l8,0 0,8 -8,0 0,-8z M160,80l8,0 0,8 -8,0 0,-8z M176,80l8,0 0,8 -8,0 0,-8z M192,80l8,0 0,8 -8,0 0,-8z M208,80l8,0 0,8 -8,0 0,-8z M224,80l8,0 0,8 -8,0 0,-8z M240,80l8,0 0,8 -8,0 0,-8z M248,80l8,0 0,8 -8,0 0,-8z M256,80l8,0 0,8 -8,0 0,-8z M264,80l8,0 0,8 -8,0 0,-8z M272,80l8,0 0,8 -8,0 0,-8z M280,80l8,0 0,8 -8,0 0,-8z M288,80l8,0 0,8 -8,0 0,-8z M96,88l8,0 0,8 -8,0 0,-8z M120,88l8,0 0,8 -8,0 0,-8z M152,88l8,0 0,8 -8,0 0,-8z M160,88l8,0 0,8 -8,0 0,-8z M168,88l8,0 0,8 -8,0 0,-8z M184,88l8,0 0,8 -8,0 0,-8z M192,88l8,0 0,8 -8,0 0,-8z M200,88l8,0 0,8 -8,0 0,-8z M208,88l8,0 0,8 -8,0 0,-8z M224,88l8,0 0,8 -8,0 0,-8z M48,96l8,0 0,8 -8,0 0,-8z M56,96l8,0 0,8 -8,0 0,-8z M64,96l8,0 0,8 -8,0 0,-8z M80,96l8,0 0,8 -8,0 0,-8z M96,96l8,0 0,8 -8,0 0,-8z M136,96l8,0 0,8 -8,0 0,-8z M144,96l8,0 0,8 -8,0 0,-8z M152,96l8,0 0,8 -8,0 0,-8z M160,96l8,0 0,8 -8,0 0,-8z M184,96l8,0 0,8 -8,0 0,-8z M208,96l8,0 0,8 -8,0 0,-8z M232,96l8,0 0,8 -8,0 0,-8z M240,96l8,0 0,8 -8,0 0,-8z M248,96l8,0 0,8 -8,0 0,-8z M272,96l8,0 0,8 -8,0 0,-8z M280,96l8,0 0,8 -8,0 0,-8z M288,96l8,0 0,8 -8,0 0,-8z M40,104l8,0 0,8 -8,0 0,-8z M56,104l8,0 0,8 -8,0 0,-8z M72,104l8,0 0,8 -8,0 0,-8z M128,104l8,0 0,8 -8,0 0,-8z M136,104l8,0 0,8 -8,0 0,-8z M192,104l8,0 0,8 -8,0 0,-8z M216,104l8,0 0,8 -8,0 0,-8z M232,104l8,0 0,8 -8,0 0,-8z M240,104l8,0 0,8 -8,0 0,-8z M264,104l8,0 0,8 -8,0 0,-8z M288,104l8,0 0,8 -8,0 0,-8z M40,112l8,0 0,8 -8,0 0,-8z M64,112l8,0 0,8 -8,0 0,-8z M72,112l8,0 0,8 -8,0 0,-8z M80,112l8,0 0,8 -8,0 0,-8z M88,112l8,0 0,8 -8,0 0,-8z M96,112l8,0 0,8 -8,0 0,-8z M104,112l8,0 0,8 -8,0 0,-8z M128,112l8,0 0,8 -8,0 0,-8z M136,112l8,0 0,8 -8,0 0,-8z M144,112l8,0 0,8 -8,0 0,-8z M168,112l8,0 0,8 -8,0 0,-8z M176,112l8,0 0,8 -8,0 0,-8z M184,112l8,0 0,8 -8,0 0,-8z M208,112l8,0 0,8 -8,0 0,-8z M240,112l8,0 0,8 -8,0 0,-8z M248,112l8,0 0,8 -8,0 0,-8z M264,112l8,0 0,8 -8,0 0,-8z M280,112l8,0 0,8 -8,0 0,-8z M40,120l8,0 0,8 -8,0 0,-8z M56,120l8,0 0,8 -8,0 0,-8z M96,120l8,0 0,8 -8,0 0,-8z M104,120l8,0 0,8 -8,0 0,-8z M112,120l8,0 0,8 -8,0 0,-8z M120,120l8,0 0,8 -8,0 0,-8z M152,120l8,0 0,8 -8,0 0,-8z M160,120l8,0 0,8 -8,0 0,-8z M168,120l8,0 0,8 -8,0 0,-8z M176,120l8,0 0,8 -8,0 0,-8z M192,120l8,0 0,8 -8,0 0,-8z M216,120l8,0 0,8 -8,0 0,-8z M232,120l8,0 0,8 -8,0 0,-8z M240,120l8,0 0,8 -8,0 0,-8z M264,120l8,0 0,8 -8,0 0,-8z M272,120l8,0 0,8 -8,0 0,-8z M40,128l8,0 0,8 -8,0 0,-8z M48,128l8,0 0,8 -8,0 0,-8z M72,128l8,0 0,8 -8,0 0,-8z M80,128l8,0 0,8 -8,0 0,-8z M96,128l8,0 0,8 -8,0 0,-8z M128,128l8,0 0,8 -8,0 0,-8z M144,128l8,0 0,8 -8,0 0,-8z M152,128l8,0 0,8 -8,0 0,-8z M192,128l8,0 0,8 -8,0 0,-8z M200,128l8,0 0,8 -8,0 0,-8z M208,128l8,0 0,8 -8,0 0,-8z M216,128l8,0 0,8 -8,0 0,-8z M224,128l8,0 0,8 -8,0 0,-8z M232,128l8,0 0,8 -8,0 0,-8z M248,128l8,0 0,8 -8,0 0,-8z M256,128l8,0 0,8 -8,0 0,-8z M264,128l8,0 0,8 -8,0 0,-8z M280,128l8,0 0,8 -8,0 0,-8z M288,128l8,0 0,8 -8,0 0,-8z M56,136l8,0 0,8 -8,0 0,-8z M64,136l8,0 0,8 -8,0 0,-8z M120,136l8,0 0,8 -8,0 0,-8z M128,136l8,0 0,8 -8,0 0,-8z M136,136l8,0 0,8 -8,0 0,-8z M160,136l8,0 0,8 -8,0 0,-8z M168,136l8,0 0,8 -8,0 0,-8z M192,136l8,0 0,8 -8,0 0,-8z M216,136l8,0 0,8 -8,0 0,-8z M224,136l8,0 0,8 -8,0 0,-8z M232,136l8,0 0,8 -8,0 0,-8z M240,136l8,0 0,8 -8,0 0,-8z M264,136l8,0 0,8 -8,0 0,-8z M288,136l8,0 0,8 -8,0 0,-8z M32,144l8,0 0,8 -8,0 0,-8z M40,144l8,0 0,8 -8,0 0,-8z M56,144l8,0 0,8 -8,0 0,-8z M64,144l8,0 0,8 -8,0 0,-8z M72,144l8,0 0,8 -8,0 0,-8z M80,144l8,0 0,8 -8,0 0,-8z M88,144l8,0 0,8 -8,0 0,-8z M96,144l8,0 0,8 -8,0 0,-8z M104,144l8,0 0,8 -8,0 0,-8z M120,144l8,0 0,8 -8,0 0,-8z M128,144l8,0 0,8 -8,0 0,-8z M144,144l8,0 0,8 -8,0 0,-8z M208,144l8,0 0,8 -8,0 0,-8z M224,144l8,0 0,8 -8,0 0,-8z M232,144l8,0 0,8 -8,0 0,-8z M256,144l8,0 0,8 -8,0 0,-8z M272,144l8,0 0,8 -8,0 0,-8z M280,144l8,0 0,8 -8,0 0,-8z M32,152l8,0 0,8 -8,0 0,-8z M48,152l8,0 0,8 -8,0 0,-8z M64,152l8,0 0,8 -8,0 0,-8z M72,152l8,0 0,8 -8,0 0,-8z M112,152l8,0 0,8 -8,0 0,-8z M144,152l8,0 0,8 -8,0 0,-8z M152,152l8,0 0,8 -8,0 0,-8z M160,152l8,0 0,8 -8,0 0,-8z M184,152l8,0 0,8 -8,0 0,-8z M192,152l8,0 0,8 -8,0 0,-8z M200,152l8,0 0,8 -8,0 0,-8z M208,152l8,0 0,8 -8,0 0,-8z M216,152l8,0 0,8 -8,0 0,-8z M224,152l8,0 0,8 -8,0 0,-8z M232,152l8,0 0,8 -8,0 0,-8z M248,152l8,0 0,8 -8,0 0,-8z M264,152l8,0 0,8 -8,0 0,-8z M272,152l8,0 0,8 -8,0 0,-8z M288,152l8,0 0,8 -8,0 0,-8z M32,160l8,0 0,8 -8,0 0,-8z M40,160l8,0 0,8 -8,0 0,-8z M48,160l8,0 0,8 -8,0 0,-8z M64,160l8,0 0,8 -8,0 0,-8z M72,160l8,0 0,8 -8,0 0,-8z M80,160l8,0 0,8 -8,0 0,-8z M96,160l8,0 0,8 -8,0 0,-8z M112,160l8,0 0,8 -8,0 0,-8z M128,160l8,0 0,8 -8,0 0,-8z M136,160l8,0 0,8 -8,0 0,-8z M160,160l8,0 0,8 -8,0 0,-8z M176,160l8,0 0,8 -8,0 0,-8z M184,160l8,0 0,8 -8,0 0,-8z M192,160l8,0 0,8 -8,0 0,-8z M232,160l8,0 0,8 -8,0 0,-8z M248,160l8,0 0,8 -8,0 0,-8z M256,160l8,0 0,8 -8,0 0,-8z M280,160l8,0 0,8 -8,0 0,-8z M288,160l8,0 0,8 -8,0 0,-8z M32,168l8,0 0,8 -8,0 0,-8z M40,168l8,0 0,8 -8,0 0,-8z M48,168l8,0 0,8 -8,0 0,-8z M64,168l8,0 0,8 -8,0 0,-8z M112,168l8,0 0,8 -8,0 0,-8z M120,168l8,0 0,8 -8,0 0,-8z M128,168l8,0 0,8 -8,0 0,-8z M136,168l8,0 0,8 -8,0 0,-8z M152,168l8,0 0,8 -8,0 0,-8z M176,168l8,0 0,8 -8,0 0,-8z M192,168l8,0 0,8 -8,0 0,-8z M200,168l8,0 0,8 -8,0 0,-8z M216,168l8,0 0,8 -8,0 0,-8z M224,168l8,0 0,8 -8,0 0,-8z M240,168l8,0 0,8 -8,0 0,-8z M288,168l8,0 0,8 -8,0 0,-8z M40,176l8,0 0,8 -8,0 0,-8z M64,176l8,0 0,8 -8,0 0,-8z M80,176l8,0 0,8 -8,0 0,-8z M88,176l8,0 0,8 -8,0 0,-8z M120,176l8,0 0,8 -8,0 0,-8z M128,176l8,0 0,8 -8,0 0,-8z M136,176l8,0 0,8 -8,0 0,-8z M144,176l8,0 0,8 -8,0 0,-8z M168,176l8,0 0,8 -8,0 0,-8z M200,176l8,0 0,8 -8,0 0,-8z M208,176l8,0 0,8 -8,0 0,-8z M240,176l8,0 0,8 -8,0 0,-8z M248,176l8,0 0,8 -8,0 0,-8z M272,176l8,0 0,8 -8,0 0,-8z M280,176l8,0 0,8 -8,0 0,-8z M40,184l8,0 0,8 -8,0 0,-8z M48,184l8,0 0,8 -8,0 0,-8z M64,184l8,0 0,8 -8,0 0,-8z M72,184l8,0 0,8 -8,0 0,-8z M88,184l8,0 0,8 -8,0 0,-8z M120,184l8,0 0,8 -8,0 0,-8z M128,184l8,0 0,8 -8,0 0,-8z M152,184l8,0 0,8 -8,0 0,-8z M176,184l8,0 0,8 -8,0 0,-8z M184,184l8,0 0,8 -8,0 0,-8z M200,184l8,0 0,8 -8,0 0,-8z M208,184l8,0 0,8 -8,0 0,-8z M216,184l8,0 0,8 -8,0 0,-8z M224,184l8,0 0,8 -8,0 0,-8z M232,184l8,0 0,8 -8,0 0,-8z M240,184l8,0 0,8 -8,0 0,-8z M248,184l8,0 0,8 -8,0 0,-8z M256,184l8,0 0,8 -8,0 0,-8z M264,184l8,0 0,8 -8,0 0,-8z M272,184l8,0 0,8 -8,0 0,-8z M280,184l8,0 0,8 -8,0 0,-8z M288,184l8,0 0,8 -8,0 0,-8z M32,192l8,0 0,8 -8,0 0,-8z M48,192l8,0 0,8 -8,0 0,-8z M64,192l8,0 0,8 -8,0 0,-8z M72,192l8,0 0,8 -8,0 0,-8z M80,192l8,0 0,8 -8,0 0,-8z M88,192l8,0 0,8 -8,0 0,-8z M96,192l8,0 0,8 -8,0 0,-8z M112,192l8,0 0,8 -8,0 0,-8z M120,192l8,0 0,8 -8,0 0,-8z M136,192l8,0 0,8 -8,0 0,-8z M168,192l8,0 0,8 -8,0 0,-8z M176,192l8,0 0,8 -8,0 0,-8z M192,192l8,0 0,8 -8,0 0,-8z M208,192l8,0 0,8 -8,0 0,-8z M224,192l8,0 0,8 -8,0 0,-8z M248,192l8,0 0,8 -8,0 0,-8z M256,192l8,0 0,8 -8,0 0,-8z M264,192l8,0 0,8 -8,0 0,-8z M32,200l8,0 0,8 -8,0 0,-8z M56,200l8,0 0,8 -8,0 0,-8z M64,200l8,0 0,8 -8,0 0,-8z M120,200l8,0 0,8 -8,0 0,-8z M144,200l8,0 0,8 -8,0 0,-8z M168,200l8,0 0,8 -8,0 0,-8z M288,200l8,0 0,8 -8,0 0,-8z M32,208l8,0 0,8 -8,0 0,-8z M48,208l8,0 0,8 -8,0 0,-8z M64,208l8,0 0,8 -8,0 0,-8z M72,208l8,0 0,8 -8,0 0,-8z M80,208l8,0 0,8 -8,0 0,-8z M88,208l8,0 0,8 -8,0 0,-8z M104,208l8,0 0,8 -8,0 0,-8z M128,208l8,0 0,8 -8,0 0,-8z M184,208l8,0 0,8 -8,0 0,-8z M192,208l8,0 0,8 -8,0 0,-8z M200,208l8,0 0,8 -8,0 0,-8z M216,208l8,0 0,8 -8,0 0,-8z M224,208l8,0 0,8 -8,0 0,-8z M248,208l8,0 0,8 -8,0 0,-8z M256,208l8,0 0,8 -8,0 0,-8z M264,208l8,0 0,8 -8,0 0,-8z M272,208l8,0 0,8 -8,0 0,-8z M32,216l8,0 0,8 -8,0 0,-8z M104,216l8,0 0,8 -8,0 0,-8z M120,216l8,0 0,8 -8,0 0,-8z M136,216l8,0 0,8 -8,0 0,-8z M144,216l8,0 0,8 -8,0 0,-8z M152,216l8,0 0,8 -8,0 0,-8z M160,216l8,0 0,8 -8,0 0,-8z M168,216l8,0 0,8 -8,0 0,-8z M192,216l8,0 0,8 -8,0 0,-8z M200,216l8,0 0,8 -8,0 0,-8z M208,216l8,0 0,8 -8,0 0,-8z M216,216l8,0 0,8 -8,0 0,-8z M256,216l8,0 0,8 -8,0 0,-8z M264,216l8,0 0,8 -8,0 0,-8z M272,216l8,0 0,8 -8,0 0,-8z M280,216l8,0 0,8 -8,0 0,-8z M32,224l8,0 0,8 -8,0 0,-8z M72,224l8,0 0,8 -8,0 0,-8z M80,224l8,0 0,8 -8,0 0,-8z M88,224l8,0 0,8 -8,0 0,-8z M96,224l8,0 0,8 -8,0 0,-8z M136,224l8,0 0,8 -8,0 0,-8z M152,224l8,0 0,8 -8,0 0,-8z M184,224l8,0 0,8 -8,0 0,-8z M208,224l8,0 0,8 -8,0 0,-8z M216,224l8,0 0,8 -8,0 0,-8z M224,224l8,0 0,8 -8,0 0,-8z M232,224l8,0 0,8 -8,0 0,-8z M240,224l8,0 0,8 -8,0 0,-8z M248,224l8,0 0,8 -8,0 0,-8z M256,224l8,0 0,8 -8,0 0,-8z M280,224l8,0 0,8 -8,0 0,-8z M96,232l8,0 0,8 -8,0 0,-8z M112,232l8,0 0,8 -8,0 0,-8z M120,232l8,0 0,8 -8,0 0,-8z M136,232l8,0 0,8 -8,0 0,-8z M152,232l8,0 0,8 -8,0 0,-8z M168,232l8,0 0,8 -8,0 0,-8z M184,232l8,0 0,8 -8,0 0,-8z M200,232l8,0 0,8 -8,0 0,-8z M208,232l8,0 0,8 -8,0 0,-8z M224,232l8,0 0,8 -8,0 0,-8z M256,232l8,0 0,8 -8,0 0,-8z M264,232l8,0 0,8 -8,0 0,-8z M272,232l8,0 0,8 -8,0 0,-8z M288,232l8,0 0,8 -8,0 0,-8z M32,240l8,0 0,8 -8,0 0,-8z M40,240l8,0 0,8 -8,0 0,-8z M48,240l8,0 0,8 -8,0 0,-8z M56,240l8,0 0,8 -8,0 0,-8z M64,240l8,0 0,8 -8,0 0,-8z M72,240l8,0 0,8 -8,0 0,-8z M80,240l8,0 0,8 -8,0 0,-8z M136,240l8,0 0,8 -8,0 0,-8z M152,240l8,0 0,8 -8,0 0,-8z M160,240l8,0 0,8 -8,0 0,-8z M192,240l8,0 0,8 -8,0 0,-8z M200,240l8,0 0,8 -8,0 0,-8z M216,240l8,0 0,8 -8,0 0,-8z M224,240l8,0 0,8 -8,0 0,-8z M240,240l8,0 0,8 -8,0 0,-8z M256,240l8,0 0,8 -8,0 0,-8z M272,240l8,0 0,8 -8,0 0,-8z M280,240l8,0 0,8 -8,0 0,-8z M32,248l8,0 0,8 -8,0 0,-8z M80,248l8,0 0,8 -8,0 0,-8z M112,248l8,0 0,8 -8,0 0,-8z M128,248l8,0 0,8 -8,0 0,-8z M136,248l8,0 0,8 -8,0 0,-8z M144,248l8,0 0,8 -8,0 0,-8z M168,248l8,0 0,8 -8,0 0,-8z M184,248l8,0 0,8 -8,0 0,-8z M200,248l8,0 0,8 -8,0 0,-8z M208,248l8,0 0,8 -8,0 0,-8z M216,248l8,0 0,8 -8,0 0,-8z M224,248l8,0 0,8 -8,0 0,-8z M256,248l8,0 0,8 -8,0 0,-8z M264,248l8,0 0,8 -8,0 0,-8z M272,248l8,0 0,8 -8,0 0,-8z M280,248l8,0 0,8 -8,0 0,-8z M288,248l8,0 0,8 -8,0 0,-8z M32,256l8,0 0,8 -8,0 0,-8z M48,256l8,0 0,8 -8,0 0,-8z M56,256l8,0 0,8 -8,0 0,-8z M64,256l8,0 0,8 -8,0 0,-8z M80,256l8,0 0,8 -8,0 0,-8z M96,256l8,0 0,8 -8,0 0,-8z M120,256l8,0 0,8 -8,0 0,-8z M128,256l8,0 0,8 -8,0 0,-8z M136,256l8,0 0,8 -8,0 0,-8z M160,256l8,0 0,8 -8,0 0,-8z M168,256l8,0 0,8 -8,0 0,-8z M184,256l8,0 0,8 -8,0 0,-8z M192,256l8,0 0,8 -8,0 0,-8z M200,256l8,0 0,8 -8,0 0,-8z M224,256l8,0 0,8 -8,0 0,-8z M232,256l8,0 0,8 -8,0 0,-8z M240,256l8,0 0,8 -8,0 0,-8z M248,256l8,0 0,8 -8,0 0,-8z M256,256l8,0 0,8 -8,0 0,-8z M280,256l8,0 0,8 -8,0 0,-8z M288,256l8,0 0,8 -8,0 0,-8z M32,264l8,0 0,8 -8,0 0,-8z M48,264l8,0 0,8 -8,0 0,-8z M56,264l8,0 0,8 -8,0 0,-8z M64,264l8,0 0,8 -8,0 0,-8z M80,264l8,0 0,8 -8,0 0,-8z M96,264l8,0 0,8 -8,0 0,-8z M104,264l8,0 0,8 -8,0 0,-8z M112,264l8,0 0,8 -8,0 0,-8z M120,264l8,0 0,8 -8,0 0,-8z M136,264l8,0 0,8 -8,0 0,-8z M144,264l8,0 0,8 -8,0 0,-8z M168,264l8,0 0,8 -8,0 0,-8z M176,264l8,0 0,8 -8,0 0,-8z M208,264l8,0 0,8 -8,0 0,-8z M224,264l8,0 0,8 -8,0 0,-8z M232,264l8,0 0,8 -8,0 0,-8z M256,264l8,0 0,8 -8,0 0,-8z M264,264l8,0 0,8 -8,0 0,-8z M280,264l8,0 0,8 -8,0 0,-8z M32,272l8,0 0,8 -8,0 0,-8z M48,272l8,0 0,8 -8,0 0,-8z M56,272l8,0 0,8 -8,0 0,-8z M64,272l8,0 0,8 -8,0 0,-8z M80,272l8,0 0,8 -8,0 0,-8z M96,272l8,0 0,8 -8,0 0,-8z M112,272l8,0 0,8 -8,0 0,-8z M120,272l8,0 0,8 -8,0 0,-8z M128,272l8,0 0,8 -8,0 0,-8z M136,272l8,0 0,8 -8,0 0,-8z M144,272l8,0 0,8 -8,0 0,-8z M160,272l8,0 0,8 -8,0 0,-8z M168,272l8,0 0,8 -8,0 0,-8z M200,272l8,0 0,8 -8,0 0,-8z M216,272l8,0 0,8 -8,0 0,-8z M232,272l8,0 0,8 -8,0 0,-8z M240,272l8,0 0,8 -8,0 0,-8z M264,272l8,0 0,8 -8,0 0,-8z M32,280l8,0 0,8 -8,0 0,-8z M80,280l8,0 0,8 -8,0 0,-8z M112,280l8,0 0,8 -8,0 0,-8z M120,280l8,0 0,8 -8,0 0,-8z M128,280l8,0 0,8 -8,0 0,-8z M152,280l8,0 0,8 -8,0 0,-8z M160,280l8,0 0,8 -8,0 0,-8z M168,280l8,0 0,8 -8,0 0,-8z M184,280l8,0 0,8 -8,0 0,-8z M200,280l8,0 0,8 -8,0 0,-8z M216,280l8,0 0,8 -8,0 0,-8z M232,280l8,0 0,8 -8,0 0,-8z M248,280l8,0 0,8 -8,0 0,-8z M264,280l8,0 0,8 -8,0 0,-8z M272,280l8,0 0,8 -8,0 0,-8z M32,288l8,0 0,8 -8,0 0,-8z M40,288l8,0 0,8 -8,0 0,-8z M48,288l8,0 0,8 -8,0 0,-8z M56,288l8,0 0,8 -8,0 0,-8z M64,288l8,0 0,8 -8,0 0,-8z M72,288l8,0 0,8 -8,0 0,-8z M80,288l8,0 0,8 -8,0 0,-8z M128,288l8,0 0,8 -8,0 0,-8z M136,288l8,0 0,8 -8,0 0,-8z M152,288l8,0 0,8 -8,0 0,-8z M160,288l8,0 0,8 -8,0 0,-8z M168,288l8,0 0,8 -8,0 0,-8z M200,288l8,0 0,8 -8,0 0,-8z M216,288l8,0 0,8 -8,0 0,-8z M224,288l8,0 0,8 -8,0 0,-8z M280,288l8,0 0,8 -8,0 0,-8z " stroke="transparent" fill="#111111"/></svg>
